<mxfile host="app.diagrams.net" agent="Mozilla/5.0 (Windows NT 10.0; Win64; x64) AppleWebKit/537.36 (KHTML, like Gecko) Chrome/126.0.0.0 Safari/537.36" version="24.7.4">
  <diagram name="Page-1" id="ijwrTiIS-YTeZ8UuRXQu">
    <mxGraphModel dx="1014" dy="658" grid="1" gridSize="10" guides="1" tooltips="1" connect="1" arrows="1" fold="1" page="1" pageScale="1" pageWidth="850" pageHeight="1100" math="0" shadow="0">
      <root>
        <mxCell id="0" />
        <mxCell id="1" parent="0" />
        <mxCell id="ZgGwfFznnnTfnzS32adI-23" value="" style="rounded=0;whiteSpace=wrap;html=1;" vertex="1" parent="1">
          <mxGeometry x="131" y="167" width="349" height="133" as="geometry" />
        </mxCell>
        <mxCell id="ZgGwfFznnnTfnzS32adI-10" style="edgeStyle=orthogonalEdgeStyle;rounded=0;orthogonalLoop=1;jettySize=auto;html=1;" edge="1" parent="1" source="ZgGwfFznnnTfnzS32adI-4" target="ZgGwfFznnnTfnzS32adI-9">
          <mxGeometry relative="1" as="geometry" />
        </mxCell>
        <mxCell id="ZgGwfFznnnTfnzS32adI-4" value="" style="aspect=fixed;sketch=0;html=1;dashed=0;whitespace=wrap;verticalLabelPosition=bottom;verticalAlign=top;fillColor=#2875E2;strokeColor=#ffffff;points=[[0.005,0.63,0],[0.1,0.2,0],[0.9,0.2,0],[0.5,0,0],[0.995,0.63,0],[0.72,0.99,0],[0.5,1,0],[0.28,0.99,0]];shape=mxgraph.kubernetes.icon2;prIcon=api" vertex="1" parent="1">
          <mxGeometry x="150" y="370" width="70" height="67.2" as="geometry" />
        </mxCell>
        <mxCell id="ZgGwfFznnnTfnzS32adI-12" style="edgeStyle=orthogonalEdgeStyle;rounded=0;orthogonalLoop=1;jettySize=auto;html=1;" edge="1" parent="1" source="ZgGwfFznnnTfnzS32adI-9" target="ZgGwfFznnnTfnzS32adI-19">
          <mxGeometry relative="1" as="geometry">
            <mxPoint x="320" y="235" as="targetPoint" />
          </mxGeometry>
        </mxCell>
        <mxCell id="ZgGwfFznnnTfnzS32adI-9" value="" style="shape=image;verticalLabelPosition=bottom;labelBackgroundColor=default;verticalAlign=top;aspect=fixed;imageAspect=0;image=data:image/png,iVBORw0KGgoAAAANSUhEUgAAAUUAAAFFCAYAAAB7dP9dAAAABmJLR0QA/wD/AP+gvaeTAAAACXBIWXMAAA3XAAAN1wFCKJt4AAAAB3RJTUUH4gMUEwQWgVvHTQAAERZJREFUeNrt3X+QlPV9wPH399nj/AGcUqO2gnFsQDPYjNOGyN0eV7T+tjXGjjD9Q8c/VByqaO5AdLQzvWTaGQXuDitiqpn+ETvTiZiJVkTFnwTuB8hkYquTIJa0BGLU8BsU8Pb59o/lOO00htPb3Wd3368Z/uP22efz7L7v+e7t7hMY0t57DSG0A9OAsUhS7YvAb4i8BIVOetq2BAA6+u+HeLfzkVTHPiDJTc8VzxBZ5jwk1bmxQFNyZMksSUrjpQnwdSchSUDg1AQY5yQkCYC9iTOQpKM+NIqS9AlGUZKMoiQZRUkyipJkFCXJKEqSUZQkoyhJRlGSjKIkGUVJMoqSZBQlyShKklGUJKMoSUZRkoyiJBlFSTKKkmQUJckoSpJRlCSjKEkyipJkFCXJKErSMWrI1L3pzgcPiVSHOvqiZ4qS5PJZkoyiJBlFSTKKkmQUJckoSpJRlCSjKElGUZKMoiQZRUcgSUZRkoyiJBlFSTKKkmQUJckoSpJRlCSjKElGUZKMoiQZRUkyipKULQ2OQCqRWU/kmDRpKiGeA0wETgAgJB8C20kLm9j261+wYnbBYRlFqTbNG2iiIV5LYDbENmA8hE//nxg5Ekc4c9Je5vetgbiCXHyKRTP2OUSjKFW/Bb2nkYa7IJ0DNI3gJ5uIXA3hagbDHtr7HiFp7KJr2m8damX4mqL0RXTGhI7eO0jDJmDBCIP4f51E4B7i4U109M+FGBywUZSqx50Dp7O373kIDwInj+It/wHE5XQMrGT+xi85aKMoVcFyef3Z5NJ1EC4t3UbiVcTDG7hrYIoDN4pSdt01MIW00A9MLsPWzqaQrqF97R87eKMoZXPJXEhfAE4v41b/iJB7waW0UZSypTMm5AqPA2dXYOuTSQ//wD++GEUpO/b1zyvta4i/R+BK2gdu9UCUlu9T1LHr6O2E8Pd1u/8xC6cx8R+4bf0KHp6+wwekZ4oyiIqcQuNgh4MwijKIOrqMDnNZ8MZYB1G6KMaM3Jfo4TCIOiYTKBy4psb2aTAjGTqUQMzKaxMf+Fg3iDrWs0Vm1dgeZeSz3uG/E0g2ZOQgr/eRbhB1zGbSGWvp5a+NGenQqoQQH8vI4vlRH+cGUSNYQu8eOLdm9ibybxm4F++TS/8loSv/FPDjCt+ZFXTnV/o4N4ga0VnN5JrZl23bfghUctWaAjexaMa+4un3/sbriTxZoV8RPyRyo49wg6gRR3FSzezLitkF0sFvEfmPCmz9IwLXD52YffojQx3rriImNxGYTvGznaV4c/cgkd8Qwnpi/D49+ed9dBtEfZ4ohrvpallUU/s0Z+MYxn18MzAL4rkMXcKhNHYTeRFYTE/+neHfNZJBNIo6yjdvG0SDWK0iXs/FKMog6hNR3OYQjKIMoo4+e+Nmh2AUZRBVtJPxLW87BqMog6ji0vk1OkPqIIyiDKKKVVzhDIyiDKKKdpEb94xjMIoyiCpaxpLzDzgGoyiDqMAOIksdROl4jRaD+EWfpZ10t3ynTuZ5B4QHK3wv7qUnv9MHt2eKMoiV15RfBqyu2PYjz9HV8pgPbqMog5gNnSEliTcAWyoQxM0czt0Awct2GEUZxAxZ0vo+ueQK4L0ybvVdKFzhZU2NogxiNi1u3kws5ImU42N2W8glM+lp2+ID3CjKIGZXT9sWcnEG8EIJt7KS0Didxc1+xrmM/D5Fg2gQv5AYaO+/jcB3gQmj9KzcQeQ+ulse9TVEoyiDWJ3m/eRUxoyZD3Eu0PQ5b2U3MS6H0OXbboyiDGJtWLhuPIPJtQSuIzLzGAK5G1hDCCv46ODTLL9ov0M0ijKItWnWEzkmnfFVSM4BJhLi2CNz3U9gOyRvs3XrJlbMLjgsoyiDKBlFGUTJKMogSkZRBlEyijKIklGUQZSMogyiZBRlECWjKIMoGUUZRMkoyiBKs57IMWnSVEIsfjQRTig+bJIPge2khU1s+/UvavmjiUbRIKrezRtooiFeS2A2xDZg/O/5ib0E1kBcQS4+xaIZ+4yiDKKq34Le00jDXcAcPv/Xne0h8ghJYxdd035rFGUQVX06Y8LevtshfAc4eZRudSeEv6O7+XvV/sW4RtEgqp7cOXA6ucLjEC4t0eNtFWHMjdV81mgUDaLqZrm8/mzSwmpgcom39EtyyeXVem0Zo2gQVQ/uGphCIV0LnF6mLb5LLMyoxqsQGkWDqLpYMqf9wNll3vI7hMaWaltKe4lTg6ha1hmT4muIZQ8iwGTSwz+AWFUnX0bRIKqW7eufV7o/qhzTWvRK2gdudfms+g5iWfZXVVSZHRzMncvD03d4piiDKEVOoXGwwzNFGURp2C6SsWey5PwDnikaRIMowQQKB65x+WwQDaI0vC6dZRQNokGUhs2kM2a+OUbRIBpElW8JvXvgXKNoEA2iNLyEnpz1u2gUDaJBVDmjOMkoGkSDKA1HcXzW76JRNIgGUTKKBtEgqiIimb+ei1E0iAZR5YziNqNoEA2idLQ4MfPfxm0UDaJBVLnsZHzL20bRIBpEqbh0fo3OkBpFg2gQpWIVV1TFCt8DZRANospgF7lxzxhFg2gQpaJl1fBdikbRIBpElV5gB5Gl1XJ3GzxiBtGLatX0Y/kOCA9W+F7cS09+Z7WMzDNFg2gQa1lTfhmwumLbjzxHV8tj1TQyo2gQDWIt6wwpSbwB2FKBIG7mcO4GCNEoGkSDaBCzY0nr++SSK4D3yrjVd6FwRbVc1tQoGkSDWG8WN28mFvJEyvExuy3kkpn0tG2pxlEZRYNoEOtFT9sWcnEG8EIJt7KS0Didxc2bq3VM9X3dZ4NoEOtSDLT330bgu8CEUSrJDiL30d3yaLW9hmgUDaJBVNG8n5zKmDHzIc4Fmj7nrewmxuUQuqrpbTdG0SAaRP1uC9eNZzC5lsB1RGYeQyB3A2sIYQUfHXya5Rftr6Vx1F8UDaJB1O8264kck874KiTnABMJceyRY7yfwHZI3mbr1k2smF2o1RHUVxQNokGUjKJBNIiSUTSIBlEyigbCIEpG0UAYRMkoGgiDKBlFA+H+SkbRQLi/klE0EO6vZBQNhPsrGUUD4f5KRtFAuL8Vddv6U2hMLyZhJmmcSuAcYBzFL0LYC+wn8jaBt4A1RF6ulW+AUa1H0SAaxJGY33c5kbnAVcCYEfzkYWAVMT5CT+tqs2EUDaL7W93a17URkm5g2ijc2gagne58n/kwigbR/a2yGPadACwlcMsoP9YjxO8Rw3x68h+ZEaNoINzfKlgq955FDM8AXyvh3N6gUPgmD87YakqMooFwfzMcxIGpxHQ1MLHk24psI4bLWNryc3NiFA2E+5s9CwcmMZj2Al8u41a3E2IrXa3/Y1KqX3Vc4tQgGsRjMWfjiQymq8ocRICJxORpOl893qQYRQPh/mbH2MM9lPQ1xM9cR5/PvuO7TIrL52N8ovdFR606kJLGGSxt7XcUnilKgoQk6XYMRlHS8DK6mfb+S5yDUZQ0HMa5zsAoShoS+CvuWTvBQRhFSUWNHE7+wjEYRUnDp4sXOgOjKGlIZKpDMIqSjp4oMtkhGEVJw052BEZR0rCxjsAoShp2wBEYRUnDdjsCoyhpSOQdh2AUJQ0J8S2HYBQlHY1i8ppDMIqSig5ROPiKYzCKkoqniStZepF/aDGKkoriI87AKEoq6qM7/7JjqF4NZdlKdz7UxLQ6eu+GcH+Jl14P0N1yjw/NEWrvu4BAf4V/0aeQzvdgeKZYP7pbH4BY4mDFu+nov99hj1BPfgPEf67wsvlhumcMeDCMomE0jNkQw3wIb1Ro6z+l6fBCD0L1C47ApXSNLaMnEugFzirjVrdTSPM8OGOrB8AzRc8YPWPM2jJ6O2m4ksi2Mm1xK4X0YoNoFGUYs2tpy88JDXkCPyv5krkhaeXBGZsculGUYcz4cbngV4w/1EIIy4F0lG89hfgQTYdaWdS8zWHXFl9THC2+xphd3+5tIUm6ITaPwq31EWkv/rVbRlGGsZq1919CiH8L/CXQOIKfPETkWQLLfWO2UZRhrD33rJ1QvC5zuJDIVEKcAqEJOAnYA3EvMWwmxLcIyWsUDr7iZ5mNogyjZBRlGCWjKMMoySgaRklG0TBKMoqGUZJRNIySjKJhNIySUTSMhlEyiobRMEpG0TAaRskoGkbDWPduW38KjYOXkiRtxHgeMAUYf+TfPiJ7gHcIvEkMazlu8EXub9vl4IyiYTSMNSQG5vdfRuR24HJgzAh++DDwHDEso6flJWdpFA2jYaxu7evaCMlS4M9G4dY2QHqnVxk0iobRMFafORtPZNzHSyHePMrPzQgsp+nQAjovOuigjaJhNIzZN7/3LGJ4FjivhM/2n5FLrvYSCkbRMBrGjAdxYCoxXQ1MLMPWtlJIL/NiW0bRMBrGbFo4MInBQh+EM8u4Va9T/Rm8ml9WeZXA2jdn44kMps+XOYgAE8klTzFv1XEeBKNoGA1jdoz7eCmlfA3xs/0pY05a7EFw+exSWhqWkoQ8S1rWOwrPFD1jlCAhjd2OwSgaRmlYngX9FzoGo2gYpSGFOM8hDPM1xWrka4waXQcZ0/iHPDBtj6PwTNEzRgmOZ/DwRY7BKBpGaUhkpkMwioZRGhL4E4dgFA2jNHym+BWHYBQNozRsgiMwioZRGnaiIzCKhlEa9qEjMIqGURq20xEYRcMoHRX/yxkYRcMoHW1ieNMhGEXDKA1XcY0zMIqGUSo6yGDuVcdgFA2jBEB4loea9zoHo2gYJYCQ/pND+MQ4HEGd8WvH9ClxHd2tbc7BKEoV/uXUlwfWVfg5mBJpoSe/wQPi8lmqrO58H/BoZU8SecggGkUpQytX2oH/rNDWf8rg7rs9CC6fpWxZODCJwbQX+HIZY7yN0JCn+4JfeQA8U5SyZVHzNkJyJbC9TFvcSppeYhCP9Uyxvf9qQrwJ+AZwGtBQgm0OAu8Br5PE77Ok9VkPg+reneu+TC5ZCXytpEvmyDfpyW/P7Bw632pkz545BGYBU450KFeCLRWO/CJ6kVzyAIubN386igveGEt64HHg2rIPIfIkBxpv5NFpfnWR6lt73wkkdBO5ldF9aSuFsIyPdy3koasOZfelhHVnMJisBs4r85YPQryF7tZ/PRLFGOjo/zFwTQVPWH9Ed8t1Piskht6us/TIiu2L6iPEb9PV+nqm97nz1Qb2HtcPTKvQPUiJ4Vv0tDwTmN//18T4owys5K+hu+XffUZIQ2eO/ZcQ4u3AFcBxIzrziawiFx5iSctr1fGLoPd6CI9X+F58QEP6lQbSeHM2/gYdbwGMojSkp+Ul4CXuWTuBj5OLifw5MZxHiFMgNAEnAbuBPcA7RN4E1jCYvFx1n2WO4W8y0KFTGUxuaiDEb2TknTkX+CyQ/h/3t+0CnjzyrzYFvp6ROl+VQDglI2M51Ue/VLe+lJH7cVZCdt7A7RvJpfrVkI27EY7zzduS9AlGUZKMoiQZRUkyipJkFCXJKEqSUZQkoyhJRlGSjKIkGUVJMoqSZBQlyShKklGUJKMoSUZRkoyiJBlFSTKKkmQUJckoSpJRlCSjKEkyipJkFCXJKEqSUZQkoyhJRlGSjKIkGUVJMoqSZBQlyShKklGUpOxoyNS96eiLHhJJnilKklGUJKMoSUZRkoyiJBlFSTKKkmQUJckoSpJRlCSjKElGUZKMoiTJKEqSUZQkoyhJRlGSjKIkGUVJMoqSZBQlyShKklGUJKMoSUZRkoyiJBlFSTKKkmQUJalKxbEJsN9BSBJAGJ9AeN1BSBIQ+SAh0uMkJAlIwosBgPbefySEe52IpDr2AUluevEPLT2t9wFXE3kFX2OUVE8LZniXyOPEQjNLpv/yfwFC+YgO8amDYAAAAABJRU5ErkJggg==;" vertex="1" parent="1">
          <mxGeometry x="152.5" y="202.5" width="65" height="65" as="geometry" />
        </mxCell>
        <mxCell id="ZgGwfFznnnTfnzS32adI-19" value="" style="shape=image;verticalLabelPosition=bottom;labelBackgroundColor=default;verticalAlign=top;aspect=fixed;imageAspect=0;image=data:image/png,iVBORw0KGgoAAAANSUhEUgAAAgAAAAIACAMAAADDpiTIAAAAAXNSR0IArs4c6QAAAARnQU1BAACxjwv8YQUAAAMAUExURQB51gh92hCB2hiF2iCJ3iiN3jCR3jiV4kCZ4kid4lCh5lml5mGq5mmu6nG26nm66n266oW+7o3G7pXK7p3O8qXS8q7W8rba8r7e9sbi9s7m9tbq+t7u+uby+u72//b6/////wAAAAAAAAAAAAAAAAAAAAAAAAAAAAAAAAAAAAAAAAAAAAAAAAAAAAAAAAAAAAAAAAAAAAAAAAAAAAAAAAAAAAAAAAAAAAAAAAAAAAAAAAAAAAAAAAAAAAAAAAAAAAAAAAAAAAAAAAAAAAAAAAAAAAAAAAAAAAAAAAAAAAAAAAAAAAAAAAAAAAAAAAAAAAAAAAAAAAAAAAAAAAAAAAAAAAAAAAAAAAAAAAAAAAAAAAAAAAAAAAAAAAAAAAAAAAAAAAAAAAAAAAAAAAAAAAAAAAAAAAAAAAAAAAAAAAAAAAAAAAAAAAAAAAAAAAAAAAAAAAAAAAAAAAAAAAAAAAAAAAAAAAAAAAAAAAAAAAAAAAAAAAAAAAAAAAAAAAAAAAAAAAAAAAAAAAAAAAAAAAAAAAAAAAAAAAAAAAAAAAAAAAAAAAAAAAAAAAAAAAAAAAAAAAAAAAAAAAAAAAAAAAAAAAAAAAAAAAAAAAAAAAAAAAAAAAAAAAAAAAAAAAAAAAAAAAAAAAAAAAAAAAAAAAAAAAAAAAAAAAAAAAAAAAAAAAAAAAAAAAAAAAAAAAAAAAAAAAAAAAAAAAAAAAAAAAAAAAAAAAAAAAAAAAAAAAAAAAAAAAAAAAAAAAAAAAAAAAAAAAAAAAAAAAAAAAAAAAAAAAAAAAAAAAAAAAAAAAAAAAAAAAAAAAAAAAAAAAAAAAAAAAAAAAAAAAAAAAAAAAAAAAAAAAAAAAAAAAAAAAAAAAAAAAAAAAAAAAAAAAAAAAAAAAAAAAAAAAAAAAAAAAAAAAAAAAAAAAAAAAAAAAAAAAAAAAAAAAAAAAAAAAAAAAAAAAAAAAAAAAAAAAAAAAAAAAAAAAAAAAAAAAAAAAAAAAAAAAAAAAAAAAAAAAAAANYLBa4AAAAhdFJOU///////////////////////////////////////////AJ/B0CEAAAAJcEhZcwAAXEYAAFxGARSUQ0EAABt7SURBVHhe7Z3pYtS4FoTpJECAyzIZtoGQ9Ps/5U0nAtJe5JJ0ljqy6u9kgtv1xXLbVUcvjkO71gBg5xoA7FwDgJ1rALBzDQB2rgHAzjUA2LkGADvXAGDnGgDsXAOAnWsAsHMNAHauAcDONQDYuQYAO9cAYOcaAOxcA4CdawCwc3UPwO01rd78Ssfoqe4B+OcFrT6lQ3RV9wC8SmebTy/v0yG6qncAfqazTaj/0iH6qncAPqazzaeP6Qid1TsAV+l00+mKYgHoHoDv6XTz6Xs6Qm91DsD7dLrp9D4doLv6BuD+Ip1vNl3epSN0V98AfEvnm07f0gH6q28A3qXzzab/peMjUNcA3B/SCSfTJcMz4KSuAficTjibvqTjY1DXALxJJ5xM79LhUahnAH6lE06mC6IFoG8AbtIZJ9PndHgc6hmA1+mMc+lNOjoSdQzAbTrjXDpQLQBdA/ApnXIu/ZuOjkUdA/AynXIqXaeDo1G/APyXTjmVDrfp6GjULwAf0jmn0j/p4HjULwCX6Zwz6XU6NiJ1CwDji8DDz3RwROoWgP+lk84kihz4RL0CwBgFeUUSAzxTrwB8SSedST/SsVGpVwDeppNOJJIc+ESdAnDHFwXhKALN1CkA/6azTiSOItBMnQJwnc46j2hy4BP1CQDfi0CWItBMfQLA1wlnKQLN1CcAdJ1wohz4RF0CQNcJ5ykCzdQlAHSdcJ4i0ExdAsDWCafKgU/UIwBsnXCmItBMPQLA1glnKgLN1CEA92RRkLfpuDjVIQBkURCuItBMHQJA1gnnKgLN1B8AZJ1wsiLQTP0BwNUJ58uBT9QfAFydcLYi0EzdAcDVCacrAs3UHQBUURDGHPhE3QFA1QnnKwLN1BsAVFGQV+mgmNUbAEyd8ANlDnyi3gBg6oQzFoFm6gwApk44ZRFops4AYOqEk+bAJ+oMAKIXgZxFoJn6AoAoCkJaBJqpLwCIOuG0OfCJugKAqBPOWgSaqSsAeDrhtEWgmboCgKcTTpwDn6gnAHg64bxFoJl6AoDmRSBxEWimngCg6YR/TQcUQR0BQBMFYS4CzdQRACydcOoi0EwdAcDSCacuAs3UDwAsnXD2HPhE/QBA0gknLwLN1A8AJJ1w8iLQTN0AQBIF4c+BT9QNABydcPoi0Ey9AEDSCb9JhxNHvQDA0Qkn3BBiS70AQNEJD1AEmqkTADg64QGKQDN1AgBFJzxGDnyiTgBg6ISHKALN1AcAvxhWgBBFoJn6AIAhChIlBz5RHwAwdMJjFIFm6gIAhk54kCLQTF0AQNAJj5MDn6gLAAg64VGKQDP1AADBi8AwRaCZegDAPwpyGXUB6AMA/xeBcYpAM5EBcP/tw/XFi8vrDwWn1L8TjhSBvn+8vnpxuH7/lexiwQXAl7+5rssb9Ey5d8KBItDnmg9mIiYA7s/LnS+xRyv+nfDNHPiv8wdVr5hyo0QA3E6D/QcoYOneCd8sAn2fInpJ9NqIB4DbhVgvcifg3QnfLALdzi9RFzwE0ACw5D8SsnfvhG9dpu6XHlNd0Lw5YAFg0X9kvx3vKMhmEWi5snhg+eZIAsDPZf+BR6zOnfDD1jVqLarAQgAHAD9W7+S3LgHenfDNDSFWX1SREEABwLr/Lw4b37GdO+HbRaD1F1UHijkSDABk/N/8ku3bCd8uAmU7yww9QgIAsv5vJO2cO+HbOfCv6SeXRUCAPwDf8t/j8s/ZfV8EAkWgjSXKnwB3ADb83wBg7cuDiZAi0FZYyZ0AbwC2/M8D4BsFQXLgm48pvMPkzgBs+p8/Qa6dcKgIlL8HOMmZAF8AgMd4uWemrp1wrAgElBZ9CXAFAPD/Mv3oolw74WAOHHhS6UqAJwDIY/zsTZJnJxwtAv1IP5+TZ6TUEQDE/+wXLddOOPw6D9nGyHG4tB8AyEPcV9kHwZ5RkA/pGLZ1jzSX/QhwAwBp8+T99+yElxSBuAnwAkDAf89OeFERCCLgnVNU1AkAAf89O+GFd20QAW98CPABALkx2vLfsRNevCHEJO+8LB8CXABAkvyb/jt2wiuiHMhHdiHAAwAR/6FVREdVG0IgH/q69MoiIAcAZPz364RXbggh9LGlZQ7AvdCJQJ6w6ah2QwhOAqwBgG6IkdPgFgXZTqqviZIAYwDE/HfrhLdsCIG8vbYuDtoCIOe/Wye8KcKD3Lhe2U6cNwXgTsx/6HKqocYdgfgIsATgDslwY/57dcKbN4SgI8AQAEH/3V4EbhaBNsVGgB0Akv57RUEkdgRCCDCsj5sBIOq/UydcZkOIm/TbcrIjwAqAlfr3uVD/oTCRgoQ2hECO3owAIwBk/XfqhIvtCMREgA0Awv77dMIFN4SACLCpj5sAIOy/UydcMr2NEGAzQMACgB/IY9sC/3064bI7AtEQYABAvv6dVOK/TydceE3+CnyRsSBAHwBx/6Fv0uIS3xBiuxb5QIB+eVgdAHn/XTrhCjsCIQTo18e1AZhNyVxSmf8unXCNuX4UBCgDAH3GMv9dOuE67T0GAnQB0PDfoxOutSMQdH50dyRXBUDDf5dOuNrdOHSHpFof1wTgi4b/Hi8CFYt77gQoAoA86yj336ETXlwEKpE3AXoA6PjvEQXRnegJEaC3LaUaAEr+O3TCq4pABYIIUFuFtACAqrsV/tt3wiuLQAWC3pVoEaAEAPS0tsJ/h054bRGoQNDbUiUCdABQ89++E96YA8fkSIAKAHr+m3fCW4pABYIIUKmPawCg5799FET/ddyT3AhQAAAq7dT5b94Jl8iBY/IiQB4ATf+tO+HNRaAC3SJwyxMgDoCm/+ad8PYiUIFEmxOwpAFQ9d+6Ey6WA8fkQoAsANA0rPrPYNwJlykCFciDAFEAoPp/wycw7oQLFYEK5ECAJADa/ht3wl+lf9ZSEAEvJW9NBQHQ9h/YfUNSgkWgAt0hrTfJ+rgcAHfQU9qW65dtFMRpGwfoz0iQADEAoItXk/+2nXDZIlCBjAmQAkDffyxhICa//d0xAqQWKCEADPy37YTrRXC2BREgVR+XAeDWwH/TTrhWDhyTJQEiAEAvMhr9t30RWLQhhLygeboyBEgAYOK/aRTEcxuvJ0EESNynCABg479lJ/zw7buVVvMmCAES9fF2AH6a+O/TCVdXJnFqREAzAFCoud1/333C1ZQz0IaAVgCs/PfdJ1xL+d0HIQJaWyuNAFj577tPuJa2pk5Ay15jarENADP/XfcJ19L26yYDApoAgOrfEv777hOuJSBvoE9ACwB2/kPLYTRBiWN1AhoAMPTfdZ9wJYGVE4iAhlfX9QAY+u+6T7iW0M4h9Ai8noBqALCXszL+e+4TriW86Qed6WoCagEw9d9zn3AlXRWcGVUCKgEw9d9zn3AtFb3Hgc525QusOgBs/XfaHkBThX+v0Pmuq49XAYC9mhfz33GfcCW9Ls2b6BFQAwD0zUTOf6ftARRVUTmCRu7VEFABgLX/fvuEa6nmwQ30rftdeZKtHABz//32CVdS3fbTEAHl9fFiAD6kfyovQf/99glXUu3YMR0CSgHAHspL+u+2T7iWqjMcKgQUAuDgv9s+4UrKh0Cyggi4Ljv5ZQA4+N9bFKRp6xGF7TdKAIDS6tL+e+0TrqTGzjGUwCkyoAAAqK8i7b9xJ1xdrUMnxAnAAfDx32ufcCW1j53DCMC/aMAAOPnvtE+4kiTmjkIE4PVxFIA7H//B105RJDJ4WpYAEACs/i3vf18vAoXGPUNdLJQADAA3/332CVdSSQgkK6iNCRIAAeDm//Em/eouJDd0BCIAq48jAPj5b789gKIaorszyREAAIDVv1X899knXEfFIZCsxAjYBsDRf/DVcwhJz52VImATAE//e+qEN3Y454IW5ovNV49bALj631EnvC4EkhVEwOYAgQ0AoB3NtPzv6EWgyt5zIgTkAYAeOqn531EUpHmQx6IkCMgC4Ox/P53whhBIVgIE5ABw9r+fTnhTCCQraEJ3loAMAN7+d9MJ1xw8D72kzRGwDoC3//10wlV3HmklYBUAd/+76YQr7z3YSMAaAP7+99IJV998to2AFQD8/e+mE66/+3gTAcsAEPjfSxREKASS1T0SnFwhYBEABv876YSLhUDyQr4xLxOwBACD/710wq12nqkmYAEACv876YRLhkDyqiVgDgCH/310wmVDIHlVEjADgMP/PjrhtpsP1xEwBYDE/z6iIOIhkLyQ0Q0zAiYAsPjfRSdcIQSSF5KgmxJwDgCL/11EQVRCIHlVEHAGAI3/XXTC5zdc+ion4DkANP530QnXCoHkVUzAMwB4/O+hE64XAsmrlIC/ABD530EnXDMEkhfyEu0ZAX8AIPK/h064aggkL+Ts/SXgNwBM/ncQBVEOgeRVREACgMr/+J1w9RBIXiUEPAFA5X8HnXD9EEheBQQ8AsDlf/xOuEUIJC+cgBMA4K6MF/DgoTaF74QbhUCyQq6ih9NCdQIAvOR+f/zN+kK+yVLLKgSSFfJu8PSy4gEAMH5r9mQr+otAuxBITpCrPx4BwAbAP14vLBS9E24ZAskJsfX1CQDwsZvZu02MR1odjO6UNgV9mf7+AAD44sUs3BC8E24cAskIaQ5/egAA/IuzAjt4J9w8BLIuxNjrBwDA567pt6oLuXvllUMIZFXIW6HLBwCQK8XDd9v0W7UVvBNu9VUZEbS2378Av3VZARC7E+4TAlkRtJjeoleAi/RbtRX6RaBXCGRZyOPgFw9LAFjCtPlsoaMgfiGQRUHZIPxbwJ8EgapCd8Jv0ocg0dt0WDmdvgWAzwFslrfInXDXEMiCkFe8p+cA4KuAS4s1IHIn3DkEMhP0h/3jAQB0DbC4wEXuhHuHQKZCbu7fPr0NxB6+Oj7juP+e182nrN5fn0vlYbN/CORcUCTk6W0gWsS7pvqS0yCN981XZCfnB7Kwny7qj494wSsvG+SVUnnfTBEC+StoyPujn0/P+MHbgD4IAD9skThCIH+E+58AgL4zPqgLAhRuAVhCIEmQ/x+ffjYBcA8mcTsgQGH0AE0I5EmQ/7+vWQmA4x14Z/Q+/XxcKYwe4AmBnFTk/x8AjrfglZFstSuX/ApAFAJ5UJn/fwHAvjg8KDgB8okjphAI6P+zh3p/AYBPTWwC5BNHTCEQzP/nS9YzALAXyA+KTID88BmqEEix/2cAwJ2cwASIrwBUIRBok7fzW9YzAODrY1wCpFcAqhAIUvI9TF5anQMATZ4/KSoB4isAUwgE8n8a7DkH4HiPJQTDEiCdOWUKgVT5PwXg+Au5izjJcQhOg4THjzGFQOr8nwFw/IleJLkef2GSbh0QhUAQ/y8WvrHOADh+R09SQAKEVwCiNyOQ/0s3rHMA8DGd8QgAX3qCIgqBVPu/BAA+pCkaAcKtA54QSL3/iwDgkYlgBKCPOjHxfBFC/L9aeWCxCAB+sxyLANHeGU8IBPJ/LbKwDMA9XNCIRIDoCsATAmnyfwWA4x28aVcgAkRXAJrP3eb/GgDYa6VHsRUi1iXZO6MJgSD+v8pcrdYAgH7xoxaeLnFKcgQxTQgE8j83uHIVgOM3dMWMQoBk85glBNLsfwYAfMkMQoDgCsASAmn3PwcAPrM1BAGCKwBLCATx//XG4OIcAHiCOgIBcs1jlhDIt/a//w0A8PxMAALkhtCThECQm7TtCf95ADoiQG72BEkIRMb/LQDw1wLsBIitACQhECH/NwEouBOkysfPJLYCcDz4kvJ/GwCcgJX3jRwS24aEIwQi5j8AAP4AhZkAGOMNcYRA5PxHAMCfCBETAL/c2hBFCETQfwiADgiQWgEoQiCI/1vPf/4IAgD6Jx/FSoDQCkARAkHMeAMfKAZAeALgl9tZUYRAZP1HAYAeOz6KkgChwWAMIRBh/2EA8HwAIwEf07G1iSEEIu0/DkABAT/T/8EjkRWAIQQi7n8BAFj5/KRMAs1HMisAwZNOef9LAMBzgmwEiIyGJAiBKPhfBEBYAiQGgxGEQDT8LwPgeIuOD6AiQGI0JEEIRMX/QgCOdxEJkBgN6R8C+azifykAIQkQWAH8QyDI4/gK/4sBON6hBTsaAgQGg/mHQLT8LwcAHyTFQoDAYLCv6Ve5Sc3/CgAKCKAITwkMBnMPgej5XwMA/jeFvpNWVfsK4B4CUfS/DoBQBLSvAN4hEE3/KwEIRED7CuAdAkH8f1d9kaoEAE5YuBPQPBjsdfpFXkL8b7hJqQUgDAGtoyG9QyDK/tcDADctfAloHg3pHALR9r8BAOjYTnIloHUFcA6BqPvfAkAIAhpHQ176LmD6/jcBcPwCXl9fuX2Rbh0M5hsCMfC/DQDoDeVJ1d9SW4VepFbkGwKx8L8RAHoC2kZD+oZATPxvBeD4H/icxYeAthXg4JputfG/GQA4LOxCQNsK4BoCMfK/HQBqApoGg7mGQJCJ7RL+CwAAR0XtCWgaDOYaAkGes4r4LwEALwFNoyE9QyB2/osAQEtAywogdH6rZOi/DABwVNSWgJYVwDMEYum/EAAwAaZ/Vy2DwRxDIKb+SwFwvAOncFkS0DAYzDEEgvgveHhSAMBRUTsCGkZDOoZAjP2XA4CPgPoVwDEEYu2/IADHezB8Y0VA/QrgFwIx918SADgqakNA/WAwvxCIvf+yAFARgJzMRfmFQBz8FwYAHcZjQUD1aEi3EIiH/9IAoH93+gRUrwBuIRAX/8UBQAmQ/yQTgccxk1sIxMd/eQDQNzDaBKDTbCZyC4E4+a8AAJrC0CWgdjCYVwjEy38NACgIqBwN6RUCcfNfBQA0KqpJQN0K4BUCQebYKZ0tFQD8CahcAZxCIMjjE61zpQMAOltajYC60ZBWD6kn8vRfCwA0Kqr1uaoGgzmFQFz9VwPAl4C60ZA+IRDE/3/SzypIDYDjD+w+TOXNW9VoSL2/spwQ/zXfTuoBgEZFNT5dzQrgEwLx9l8TAD8CagaD+YRA3P1XBQCdLS3+CZHTOpXuaV6Rv/+6AKBhYeHPWDMYzCUEQuC/MgA+BFSsAC4hEAb/tQFAZ0uLfs6KFcAjBELhvzoAaFhY8JNWrAAeIRAO//UBsCegfDCYRwiExH8DAMBL8uFb+ulmFY+G9AiBsPhvAoAtAeWjIR1CIDT+2wCAPZoVIqB4BXAIgfD4bwQAFtGUIaB0NKRDCITIfysA7AgoHgxmHgKBKnRW/psBgFU1BQgoHQxmHgKBvhWZ+W8HAOZMOwFgR/m3zEMgZP4bAmBDQOkKYB0CQfw/fEk/bCFDALDZ0o0EFK4A1iEQyH+BOyFclgBgYeGLpl16ywaDWYdA+Py3BUCfgLLBYNYhEEL/jQHAZks3EFA2GtLwXuskRv+tAcDCwvUEFK0AxiEQSv/NAdAloGgFMA6BcPpvDwAWFa0koGgwmG0IhNR/BwA0CSgZDGYbAmH13wOA4y0yvqeGgJLRkLYbWdH67wIAFhWtIKBgBbANgfD67wMARsBV8bf0ghXANARC7L8TANhs6VICCgaDmYZAmP33AgA6KaUEQJmDR11ahkCo/XcDQIMAfDSkZQiE238/ALBgzFXBnyq+AliGQMj9dwQAi8a9xr+twSuAaQgEyMN6+u8KAETAx/Sz28LK6A/n2zIEArydqn3uLSNXAJBpfgd0EYAHg1mGQO63R1X4+u8MAHLZRh/ZoqMhTUMg2xcAZ/+9AQAIuEo/uSVwBbANgWyWFLz9dwcACPFhjqErgG0IZOvdt7v//gBsE4DdI4OjId+lH7fR1tspf/8JANgkAPubxQaDGYdANi5LBP4zALAVFYXu2sHRkMaTQPLDahj8pwBgg4B/009lhY2GtJ4EksWSwn8OAPKzpaEH99AKYBsCeVDuHoDDfxIAslFR5FsANBjMfhJIZlwRif8sAGQIgJ4DIA+VPSaBrD4HYPGfBoD12dLIqztoMJjHdjBrTwJp/OcBYDUsjJwqZAUwDYH81sq7AB7/iQBYIQCq7yArgM92MDfpXz8Tkf9MABx/LURFr5AnN8gK4LQdzFJZjcl/KgAWwsLYuQIGgzltB/PwmWbXtUsm/7kAmMXEXmJf3LbDZaYhkHNNpyW/9rgXWRcXAA9/zM8uAhefsD9bYDSkz3YwSTfPLgKXN16XohWxAXA8/vfp+nTrfPW/z+ip2l4BfLaD+asv70+J5YvrD57pv2XxAVCuzdSFz3YwMdQBANuDwYwngYRSBwBsJkpsQyDB1AEAW80Ll+1gwig+AJsrgMd2MHEUH4CtFcBjO5hAig/AxmAw8xBIMIUHYGMwmMd2MKEUHoCN7o1DCCSWwgOQXwE8QiCxFB2A/ArgEgKJpegA5AeD+YRAQik6ANlhU14hkEgKDkC2fOcWAomk4ADkVgDHEEggBQcgtwK4hkDCKDYAucFg3iGQIIoNQGa+yAiBYIoNQGY05AiBYAoNQGYFGCEQUKEBWF8BRggEVWgA1vqkIwSCKzIA6xN4RggEVmQAVkdDjhAIrsgArK0AIwRSoMAArK4AIwRSoMAArI2GHCGQEgUGYGUw2AiBFCkuAGsz+EYIpEhxAVgZDTlCIGWKC8DyCjBCIIUKC8DyYLARAilVWACWB4ONEEipogKwPBhshECKFRWAxRXgYoRAihUVgMUVYIRAyhUUgMUVYIRAKhQUgKXBYCMEUqOgACyNhhwhkBrFBGBpNCS+x+zQM8UEYGEFGCGQOsUEYD4acoRAKhUSgIXBYCMEUqmQAMwHg71J/2WoVCEBmI2GHCGQakUEYL4CjBBItSICMFsBRgikXhEBmA4Gezm+AdYrIADTwWAjBNKigABMR0OOEEiLAgIwWQFGCKRJ8QCYrAAjBNKmeABMBoONEEib4gFwPhhshEAaFQ6A89GQIwTSqnAAnK8AIwTSqnAAnK0AIwTSrGgAnA0GGyGQdkUD4PlgsBECEVA0AJ6PhhwhEAEFA+D5CjBCIBIKBsCzFWCEQEQUDIBng8FGCEREsQB4NhhshEBkFAuAv6MhRwhESLEA+LMCjBCIlEIB8HcFGCEQKYUC4M9oyBECEVMoAH4PBhshEDlFAuDPaMgRApFTJAB+j4YcIRBBRQIgrQAjBCKpQAD8Hgw2QiCSCgRAGgw2QiCiigNAGgw2QiCyigPA0wowQiDCigPA0wowQiDCCgPA0wowQiDSCgPA42CwEQIRVxgAHkdDjhCIuKIA8DgacoRA5BUFgNMKMEIgCooCwNsRAtFREABOg8FGCERDQQD4PEIgSgoCwJsRAlFSDAAeVoARAtFRDAA+jxCIlmIAcD1CIFoKAcCvEQJRUwgA/h0hEDWFAODDeASopggA3I0QiJ5i3AQOqWkAsHMNAHauAcDONQDYuQYAO9cAYOcaAOxcA4CdawCwcw0Adq4BwM41ANi5BgA71wBg5xoA7FwDgJ1rALBzDQB2rgHAzjUA2LWOx/8D/IkTkkdloacAAAAASUVORK5CYII=;" vertex="1" parent="1">
          <mxGeometry x="320" y="201.25" width="67.5" height="67.5" as="geometry" />
        </mxCell>
        <mxCell id="ZgGwfFznnnTfnzS32adI-20" value="&lt;b&gt;Publisher Service&lt;/b&gt;" style="text;html=1;align=center;verticalAlign=middle;whiteSpace=wrap;rounded=0;" vertex="1" parent="1">
          <mxGeometry x="130" y="429" width="110" height="30" as="geometry" />
        </mxCell>
        <mxCell id="ZgGwfFznnnTfnzS32adI-21" value="&lt;b&gt;Azure Function&lt;/b&gt;" style="text;html=1;align=center;verticalAlign=middle;whiteSpace=wrap;rounded=0;" vertex="1" parent="1">
          <mxGeometry x="298.75" y="181.5" width="110" height="30" as="geometry" />
        </mxCell>
        <mxCell id="ZgGwfFznnnTfnzS32adI-22" value="&lt;b&gt;Event Grid&lt;/b&gt;" style="text;html=1;align=center;verticalAlign=middle;whiteSpace=wrap;rounded=0;" vertex="1" parent="1">
          <mxGeometry x="131" y="179" width="110" height="30" as="geometry" />
        </mxCell>
        <mxCell id="ZgGwfFznnnTfnzS32adI-24" value="" style="shape=image;verticalLabelPosition=bottom;labelBackgroundColor=default;verticalAlign=top;aspect=fixed;imageAspect=0;image=data:image/svg+xml,PHN2ZyB4bWxucz0iaHR0cDovL3d3dy53My5vcmcvMjAwMC9zdmciIHZpZXdCb3g9IjAgMCA5NiA5NiIgaGVpZ2h0PSIxNTAiIHdpZHRoPSIxNTAiPiYjeGE7ICAgIDxkZWZzPiYjeGE7ICAgICAgICA8bGluZWFyR3JhZGllbnQgZ3JhZGllbnRVbml0cz0idXNlclNwYWNlT25Vc2UiIGdyYWRpZW50VHJhbnNmb3JtPSJtYXRyaXgoMSAwIDAgLTEgMTA3NSAxNTgpIiB5Mj0iNjUuNDI2IiB5MT0iMTQ1LjMxMiIgeDI9Ii0xMDU5LjIxMyIgeDE9Ii0xMDMyLjE3MiIgaWQ9ImUzOTljMTlmLWI2OGYtNDI5ZC1iMTc2LTE4YzIxMTdmZjczYyI+JiN4YTsgICAgICAgICAgICA8c3RvcCBzdG9wLWNvbG9yPSIjMTE0YThiIiBvZmZzZXQ9IjAiLz4mI3hhOyAgICAgICAgICAgIDxzdG9wIHN0b3AtY29sb3I9IiMwNjY5YmMiIG9mZnNldD0iMSIvPiYjeGE7ICAgICAgICA8L2xpbmVhckdyYWRpZW50PiYjeGE7ICAgICAgICA8bGluZWFyR3JhZGllbnQgZ3JhZGllbnRVbml0cz0idXNlclNwYWNlT25Vc2UiIGdyYWRpZW50VHJhbnNmb3JtPSJtYXRyaXgoMSAwIDAgLTEgMTA3NSAxNTgpIiB5Mj0iMTA1Ljk2OCIgeTE9IjEwOC4wODMiIHgyPSItMTAyOS45OCIgeDE9Ii0xMDIzLjcyNSIgaWQ9ImFjMmE2ZmMyLWNhNDgtNDMyNy05YTNjLWQ0ZGNjMzI1NmUxNSI+JiN4YTsgICAgICAgICAgICA8c3RvcCBzdG9wLW9wYWNpdHk9Ii4zIiBvZmZzZXQ9IjAiLz4mI3hhOyAgICAgICAgICAgIDxzdG9wIHN0b3Atb3BhY2l0eT0iLjIiIG9mZnNldD0iLjA3MSIvPiYjeGE7ICAgICAgICAgICAgPHN0b3Agc3RvcC1vcGFjaXR5PSIuMSIgb2Zmc2V0PSIuMzIxIi8+JiN4YTsgICAgICAgICAgICA8c3RvcCBzdG9wLW9wYWNpdHk9Ii4wNSIgb2Zmc2V0PSIuNjIzIi8+JiN4YTsgICAgICAgICAgICA8c3RvcCBzdG9wLW9wYWNpdHk9IjAiIG9mZnNldD0iMSIvPiYjeGE7ICAgICAgICA8L2xpbmVhckdyYWRpZW50PiYjeGE7ICAgICAgICA8bGluZWFyR3JhZGllbnQgZ3JhZGllbnRVbml0cz0idXNlclNwYWNlT25Vc2UiIGdyYWRpZW50VHJhbnNmb3JtPSJtYXRyaXgoMSAwIDAgLTEgMTA3NSAxNTgpIiB5Mj0iNjguNTYxIiB5MT0iMTQ3LjY0MiIgeDI9Ii05OTcuNDgyIiB4MT0iLTEwMjcuMTY1IiBpZD0iYTdmZWU5NzAtYTc4NC00YmIxLWFmOGQtNjNkMThlNWY3ZGI5Ij4mI3hhOyAgICAgICAgICAgIDxzdG9wIHN0b3AtY29sb3I9IiMzY2NiZjQiIG9mZnNldD0iMCIvPiYjeGE7ICAgICAgICAgICAgPHN0b3Agc3RvcC1jb2xvcj0iIzI4OTJkZiIgb2Zmc2V0PSIxIi8+JiN4YTsgICAgICAgIDwvbGluZWFyR3JhZGllbnQ+JiN4YTsgICAgPC9kZWZzPiYjeGE7ICAgIDxwYXRoIGQ9Ik0zMy4zMzggNi41NDRoMjYuMDM4bC0yNy4wMyA4MC4wODdhNC4xNTIgNC4xNTIgMCAwIDEtMy45MzMgMi44MjRIOC4xNDlhNC4xNDUgNC4xNDUgMCAwIDEtMy45MjgtNS40N0wyOS40MDQgOS4zNjhhNC4xNTIgNC4xNTIgMCAwIDEgMy45MzQtMi44MjV6IiBmaWxsPSJ1cmwoI2UzOTljMTlmLWI2OGYtNDI5ZC1iMTc2LTE4YzIxMTdmZjczYykiLz4mI3hhOyAgICA8cGF0aCBkPSJNNzEuMTc1IDYwLjI2MWgtNDEuMjlhMS45MTEgMS45MTEgMCAwIDAtMS4zMDUgMy4zMDlsMjYuNTMyIDI0Ljc2NGE0LjE3MSA0LjE3MSAwIDAgMCAyLjg0NiAxLjEyMWgyMy4zOHoiIGZpbGw9IiMwMDc4ZDQiLz4mI3hhOyAgICA8cGF0aCBkPSJNMzMuMzM4IDYuNTQ0YTQuMTE4IDQuMTE4IDAgMCAwLTMuOTQzIDIuODc5TDQuMjUyIDgzLjkxN2E0LjE0IDQuMTQgMCAwIDAgMy45MDggNS41MzhoMjAuNzg3YTQuNDQzIDQuNDQzIDAgMCAwIDMuNDEtMi45bDUuMDE0LTE0Ljc3NyAxNy45MSAxNi43MDVhNC4yMzcgNC4yMzcgMCAwIDAgMi42NjYuOTcySDgxLjI0TDcxLjAyNCA2MC4yNjFsLTI5Ljc4MS4wMDdMNTkuNDcgNi41NDR6IiBmaWxsPSJ1cmwoI2FjMmE2ZmMyLWNhNDgtNDMyNy05YTNjLWQ0ZGNjMzI1NmUxNSkiLz4mI3hhOyAgICA8cGF0aCBkPSJNNjYuNTk1IDkuMzY0YTQuMTQ1IDQuMTQ1IDAgMCAwLTMuOTI4LTIuODJIMzMuNjQ4YTQuMTQ2IDQuMTQ2IDAgMCAxIDMuOTI4IDIuODJsMjUuMTg0IDc0LjYyYTQuMTQ2IDQuMTQ2IDAgMCAxLTMuOTI4IDUuNDcyaDI5LjAyYTQuMTQ2IDQuMTQ2IDAgMCAwIDMuOTI3LTUuNDcyeiIgZmlsbD0idXJsKCNhN2ZlZTk3MC1hNzg0LTRiYjEtYWY4ZC02M2QxOGU1ZjdkYjkpIi8+JiN4YTs8L3N2Zz4=;" vertex="1" parent="1">
          <mxGeometry x="440" y="267.5" width="30" height="30" as="geometry" />
        </mxCell>
      </root>
    </mxGraphModel>
  </diagram>
</mxfile>
